<svg width="11" height="15" viewBox="0 0 11 15" fill="none" xmlns="http://www.w3.org/2000/svg">
<path d="M7.31188 11.6064L5.33253 13.5857C5.26391 13.6543 5.26391 13.7657 5.33253 13.8343L6.44674 14.9486C6.51536 15.0172 6.62671 15.0172 6.69533 14.9486L10.8768 10.767C10.9454 10.6984 10.9454 10.5871 10.8768 10.5184L6.69533 6.33686C6.62671 6.26825 6.51536 6.26825 6.44674 6.33686L5.33253 7.45111C5.26391 7.51973 5.26391 7.63108 5.33253 7.6997L7.31188 9.67908H5.33693C3.50312 9.67908 1.99922 8.17518 1.99922 6.34133V0.175782C1.99922 0.0787213 1.92049 0 1.82343 0H0.247698C0.150638 0 0.0719166 0.0787212 0.0719166 0.175782V6.34133C0.0719166 9.239 2.43922 11.6064 5.33693 11.6064L7.31188 11.6064Z" fill="#9792A2"/>
</svg>
