<svg width="18" height="18" viewBox="0 0 18 18" fill="none" xmlns="http://www.w3.org/2000/svg">
<path d="M17.9965 4.43938C17.9755 4.24577 17.8552 4.07442 17.6753 3.99051L9.23783 0.0530049C9.08705 -0.0173428 8.91288 -0.0173428 8.7621 0.0530049L0.324598 3.99051C0.144809 4.07442 0.0245039 4.24574 0.00344531 4.43938C0.00298828 4.44342 0 4.49728 0 4.50024V14.0627C0 14.2927 0.140027 14.4996 0.353602 14.585L8.7911 17.96C8.85814 17.9868 8.92909 18.0002 9 18.0002C9.07091 18.0002 9.14186 17.9868 9.2089 17.96L17.6464 14.585C17.86 14.4996 18 14.2927 18 14.0627V4.50024C18 4.49728 17.9969 4.44339 17.9965 4.43938ZM9 1.18345L16.0222 4.46051L13.3182 5.54213L6.16384 2.50702L9 1.18345ZM4.79215 3.14714L11.8356 6.13518L9 7.26939L1.97775 4.46051L4.79215 3.14714ZM1.125 5.33105L8.4375 8.25605V16.6069L1.125 13.6819V5.33105ZM9.5625 16.6069V8.25605L16.875 5.33105V13.6819L9.5625 16.6069Z" fill="#111827"/>
</svg>
