<svg width="22" height="29" viewBox="0 0 22 29" fill="none" xmlns="http://www.w3.org/2000/svg">
<path d="M3.31877 26.3572C3.38606 27.7114 4.49565 28.7692 5.85407 28.7692H16.1459C17.5044 28.7692 18.6141 27.7115 18.6813 26.3572L20.1637 9.30762H1.8363L3.31877 26.3572ZM13.5385 13.5384H15.2308V22.8461H13.5385V13.5384ZM10.1539 13.5384H11.8462V22.8461H10.1539V13.5384ZM6.76927 13.5384H8.46158V22.8461H6.76927V13.5384Z" fill="#5A64A1"/>
<path d="M15.2308 4.23077V2.53846C15.2308 1.13881 14.0921 0 12.6923 0H9.30769C7.90804 0 6.76923 1.13881 6.76923 2.53846V4.23077H0V7.61538H22V4.23077H15.2308ZM8.46154 4.23077V2.53846C8.46154 2.07189 8.84118 1.69231 9.30769 1.69231H12.6923C13.1589 1.69231 13.5385 2.07189 13.5385 2.53846V4.23077H8.46154Z" fill="#5A64A1"/>
</svg>
